<svg width="125" height="48" viewBox="0 0 125 48" fill="none" xmlns="http://www.w3.org/2000/svg">
<path d="M6.816 24.696C7.76 24.696 8.488 24.8 9 25.008C9.512 25.2 9.952 25.408 10.32 25.632C10.512 25.744 10.664 25.832 10.776 25.896C10.904 25.944 11.024 25.968 11.136 25.968C11.296 25.968 11.408 25.88 11.472 25.704C11.552 25.528 11.616 25.264 11.664 24.912H12.216C12.2 25.216 12.176 25.584 12.144 26.016C12.128 26.432 12.112 26.984 12.096 27.672C12.096 28.36 12.096 29.264 12.096 30.384H11.544C11.48 29.552 11.288 28.744 10.968 27.96C10.648 27.176 10.192 26.536 9.6 26.04C9.024 25.528 8.312 25.272 7.464 25.272C6.696 25.272 6.064 25.488 5.568 25.92C5.072 26.352 4.824 26.952 4.824 27.72C4.824 28.36 4.984 28.912 5.304 29.376C5.624 29.824 6.088 30.264 6.696 30.696C7.32 31.128 8.072 31.648 8.952 32.256C9.72 32.752 10.408 33.248 11.016 33.744C11.624 34.24 12.112 34.8 12.48 35.424C12.848 36.048 13.032 36.792 13.032 37.656C13.032 38.712 12.752 39.584 12.192 40.272C11.648 40.96 10.928 41.48 10.032 41.832C9.136 42.168 8.152 42.336 7.08 42.336C6.088 42.336 5.296 42.24 4.704 42.048C4.112 41.856 3.616 41.656 3.216 41.448C2.864 41.224 2.592 41.112 2.4 41.112C2.24 41.112 2.12 41.2 2.04 41.376C1.976 41.552 1.92 41.816 1.872 42.168H1.32C1.352 41.784 1.368 41.336 1.368 40.824C1.384 40.312 1.392 39.648 1.392 38.832C1.408 38 1.416 36.952 1.416 35.688H1.968C2.032 36.744 2.208 37.736 2.496 38.664C2.8 39.576 3.256 40.312 3.864 40.872C4.488 41.432 5.312 41.712 6.336 41.712C6.896 41.712 7.392 41.616 7.824 41.424C8.272 41.216 8.632 40.912 8.904 40.512C9.176 40.112 9.312 39.616 9.312 39.024C9.312 38.352 9.152 37.768 8.832 37.272C8.528 36.776 8.104 36.312 7.56 35.88C7.032 35.448 6.416 35.008 5.712 34.56C4.96 34.064 4.256 33.568 3.6 33.072C2.944 32.576 2.416 32.008 2.016 31.368C1.632 30.728 1.44 29.968 1.44 29.088C1.44 28.08 1.688 27.256 2.184 26.616C2.696 25.96 3.36 25.48 4.176 25.176C5.008 24.856 5.888 24.696 6.816 24.696ZM29.4236 25.008C29.3596 25.824 29.3116 26.608 29.2796 27.36C29.2636 28.112 29.2556 28.688 29.2556 29.088C29.2556 29.44 29.2636 29.776 29.2796 30.096C29.2956 30.416 29.3116 30.688 29.3276 30.912H28.7756C28.5196 29.568 28.1916 28.504 27.7916 27.72C27.4076 26.936 26.9436 26.384 26.3996 26.064C25.8556 25.728 25.2156 25.56 24.4796 25.56H23.9276V39.264C23.9276 39.904 23.9916 40.384 24.1196 40.704C24.2636 41.024 24.5196 41.24 24.8876 41.352C25.2556 41.448 25.7916 41.504 26.4956 41.52V42C25.9996 41.984 25.3356 41.968 24.5036 41.952C23.6876 41.936 22.8316 41.928 21.9356 41.928C21.0556 41.928 20.2236 41.936 19.4396 41.952C18.6556 41.968 18.0236 41.984 17.5436 42V41.52C18.2636 41.504 18.8076 41.448 19.1756 41.352C19.5436 41.24 19.7916 41.024 19.9196 40.704C20.0476 40.384 20.1116 39.904 20.1116 39.264V25.56H19.5836C18.8476 25.56 18.2076 25.728 17.6636 26.064C17.1196 26.384 16.6556 26.936 16.2716 27.72C15.8876 28.488 15.5516 29.552 15.2636 30.912H14.7116C14.7436 30.688 14.7596 30.416 14.7596 30.096C14.7756 29.776 14.7836 29.44 14.7836 29.088C14.7836 28.688 14.7676 28.112 14.7356 27.36C14.7196 26.608 14.6796 25.824 14.6156 25.008C15.3516 25.024 16.1516 25.04 17.0156 25.056C17.8956 25.072 18.7756 25.08 19.6556 25.08C20.5356 25.08 21.3276 25.08 22.0316 25.08C22.7516 25.08 23.5436 25.08 24.4076 25.08C25.2876 25.08 26.1676 25.072 27.0476 25.056C27.9276 25.04 28.7196 25.024 29.4236 25.008ZM43.7029 25.008C43.6389 25.712 43.5909 26.392 43.5589 27.048C43.5429 27.704 43.5349 28.208 43.5349 28.56C43.5349 28.88 43.5429 29.184 43.5589 29.472C43.5749 29.76 43.5909 30 43.6069 30.192H43.0549C42.8949 29.024 42.6469 28.104 42.3109 27.432C41.9749 26.744 41.5349 26.264 40.9909 25.992C40.4629 25.704 39.8389 25.56 39.1189 25.56H38.1349C37.6709 25.56 37.3189 25.6 37.0789 25.68C36.8389 25.76 36.6789 25.92 36.5989 26.16C36.5189 26.4 36.4789 26.768 36.4789 27.264V39.744C36.4789 40.24 36.5189 40.608 36.5989 40.848C36.6789 41.088 36.8389 41.248 37.0789 41.328C37.3189 41.408 37.6709 41.448 38.1349 41.448H39.3109C40.0309 41.448 40.6629 41.296 41.2069 40.992C41.7669 40.672 42.2389 40.136 42.6229 39.384C43.0229 38.632 43.3269 37.616 43.5349 36.336H44.0869C44.0389 36.848 44.0149 37.52 44.0149 38.352C44.0149 38.72 44.0229 39.24 44.0389 39.912C44.0549 40.584 44.1029 41.28 44.1829 42C43.3669 41.968 42.4469 41.952 41.4229 41.952C40.3989 41.936 39.4869 41.928 38.6869 41.928C38.2869 41.928 37.7749 41.928 37.1509 41.928C36.5269 41.928 35.8549 41.936 35.1349 41.952C34.4149 41.952 33.6869 41.96 32.9509 41.976C32.2149 41.976 31.5189 41.984 30.8629 42V41.52C31.3749 41.488 31.7589 41.424 32.0149 41.328C32.2709 41.232 32.4389 41.04 32.5189 40.752C32.6149 40.464 32.6629 40.032 32.6629 39.456V27.552C32.6629 26.96 32.6149 26.528 32.5189 26.256C32.4389 25.968 32.2629 25.776 31.9909 25.68C31.7349 25.568 31.3589 25.504 30.8629 25.488V25.008C31.5189 25.024 32.2149 25.04 32.9509 25.056C33.6869 25.056 34.4149 25.064 35.1349 25.08C35.8549 25.08 36.5269 25.08 37.1509 25.08C37.7749 25.08 38.2869 25.08 38.6869 25.08C39.4229 25.08 40.2549 25.08 41.1829 25.08C42.1269 25.064 42.9669 25.04 43.7029 25.008ZM39.9589 33.216C39.9589 33.216 39.9589 33.296 39.9589 33.456C39.9589 33.616 39.9589 33.696 39.9589 33.696H35.7589C35.7589 33.696 35.7589 33.616 35.7589 33.456C35.7589 33.296 35.7589 33.216 35.7589 33.216H39.9589ZM40.6549 30.048C40.5909 30.96 40.5589 31.656 40.5589 32.136C40.5749 32.616 40.5829 33.056 40.5829 33.456C40.5829 33.856 40.5909 34.296 40.6069 34.776C40.6229 35.256 40.6629 35.952 40.7269 36.864H40.1749C40.0949 36.304 39.9429 35.784 39.7189 35.304C39.5109 34.824 39.2069 34.44 38.8069 34.152C38.4069 33.848 37.8869 33.696 37.2469 33.696V33.216C37.7269 33.216 38.1349 33.12 38.4709 32.928C38.8069 32.72 39.0789 32.456 39.2869 32.136C39.5109 31.8 39.6869 31.448 39.8149 31.08C39.9429 30.712 40.0389 30.368 40.1029 30.048H40.6549ZM53.6338 25.008V25.488C53.0898 25.504 52.6738 25.568 52.3858 25.68C52.1138 25.776 51.9298 25.968 51.8338 26.256C51.7378 26.528 51.6898 26.96 51.6898 27.552V39.744C51.6898 40.24 51.7218 40.608 51.7858 40.848C51.8658 41.088 52.0098 41.248 52.2178 41.328C52.4418 41.408 52.7698 41.448 53.2018 41.448H54.3778C54.9218 41.448 55.4338 41.32 55.9138 41.064C56.3938 40.808 56.8258 40.448 57.2098 39.984C57.5938 39.504 57.9138 38.936 58.1698 38.28C58.4258 37.624 58.6178 36.896 58.7458 36.096H59.2978C59.2498 36.64 59.2258 37.344 59.2258 38.208C59.2258 38.576 59.2338 39.112 59.2498 39.816C59.2658 40.52 59.3138 41.248 59.3938 42C58.5778 41.968 57.6578 41.952 56.6338 41.952C55.6098 41.936 54.6978 41.928 53.8978 41.928C53.4978 41.928 52.9858 41.928 52.3618 41.928C51.7378 41.928 51.0658 41.936 50.3458 41.952C49.6258 41.952 48.8978 41.96 48.1618 41.976C47.4258 41.976 46.7298 41.984 46.0738 42V41.52C46.5858 41.488 46.9698 41.424 47.2258 41.328C47.4818 41.232 47.6498 41.04 47.7298 40.752C47.8258 40.464 47.8738 40.032 47.8738 39.456V27.552C47.8738 26.96 47.8258 26.528 47.7298 26.256C47.6498 25.968 47.4738 25.776 47.2018 25.68C46.9458 25.568 46.5698 25.504 46.0738 25.488V25.008C46.4738 25.024 47.0098 25.04 47.6818 25.056C48.3698 25.072 49.0978 25.08 49.8658 25.08C50.5698 25.08 51.2578 25.072 51.9298 25.056C52.6178 25.04 53.1858 25.024 53.6338 25.008ZM81.1026 25.008V25.488C80.7506 25.616 80.3826 25.896 79.9986 26.328C79.6146 26.744 79.2786 27.416 78.9906 28.344L74.7666 42.048C74.6386 42.032 74.5026 42.024 74.3586 42.024C74.2146 42.024 74.0706 42.024 73.9266 42.024C73.7826 42.024 73.6386 42.024 73.4946 42.024C73.3506 42.024 73.2146 42.032 73.0866 42.048L68.0466 26.784C67.8866 26.288 67.6866 25.952 67.4466 25.776C67.2226 25.6 66.9826 25.504 66.7266 25.488V25.008C67.1746 25.024 67.7026 25.04 68.3106 25.056C68.9346 25.072 69.5506 25.08 70.1586 25.08C70.8626 25.08 71.5186 25.072 72.1266 25.056C72.7506 25.04 73.2466 25.024 73.6146 25.008V25.488C73.1346 25.504 72.7506 25.56 72.4626 25.656C72.1906 25.752 72.0306 25.936 71.9826 26.208C71.9506 26.48 72.0306 26.912 72.2226 27.504L75.6306 37.92L75.0786 38.904L77.7906 30.288C78.1746 29.072 78.3586 28.12 78.3426 27.432C78.3266 26.744 78.1426 26.256 77.7906 25.968C77.4386 25.664 76.9346 25.504 76.2786 25.488V25.008C76.8226 25.024 77.3346 25.04 77.8146 25.056C78.2946 25.072 78.7746 25.08 79.2546 25.08C79.6226 25.08 79.9586 25.072 80.2626 25.056C80.5826 25.04 80.8626 25.024 81.1026 25.008ZM63.9666 25.008V25.488C63.6466 25.536 63.4226 25.656 63.2946 25.848C63.1666 26.024 63.1106 26.264 63.1266 26.568C63.1586 26.856 63.2306 27.168 63.3426 27.504L67.0146 38.16L66.3666 39.024L69.4386 30.048L69.7746 30.696L66.0066 42.048C65.8786 42.032 65.7426 42.024 65.5986 42.024C65.4546 42.024 65.3106 42.024 65.1666 42.024C65.0226 42.024 64.8786 42.024 64.7346 42.024C64.5906 42.024 64.4546 42.032 64.3266 42.048L58.9506 27.024C58.7426 26.432 58.4946 26.032 58.2066 25.824C57.9346 25.616 57.6786 25.504 57.4386 25.488V25.008C57.9186 25.024 58.4866 25.04 59.1426 25.056C59.7986 25.072 60.4226 25.08 61.0146 25.08C61.6546 25.08 62.2226 25.072 62.7186 25.056C63.2306 25.04 63.6466 25.024 63.9666 25.008ZM89.1851 25.008V25.488C88.6731 25.504 88.2811 25.568 88.0091 25.68C87.7531 25.776 87.5851 25.968 87.5051 26.256C87.4251 26.528 87.3851 26.96 87.3851 27.552V39.456C87.3851 40.032 87.4251 40.464 87.5051 40.752C87.6011 41.04 87.7771 41.232 88.0331 41.328C88.2891 41.424 88.6731 41.488 89.1851 41.52V42C88.7531 41.968 88.2091 41.952 87.5531 41.952C86.8971 41.936 86.2331 41.928 85.5611 41.928C84.7771 41.928 84.0491 41.936 83.3771 41.952C82.7211 41.952 82.1851 41.968 81.7691 42V41.52C82.2811 41.488 82.6651 41.424 82.9211 41.328C83.1771 41.232 83.3451 41.04 83.4251 40.752C83.5211 40.464 83.5691 40.032 83.5691 39.456V27.552C83.5691 26.96 83.5211 26.528 83.4251 26.256C83.3451 25.968 83.1691 25.776 82.8971 25.68C82.6411 25.568 82.2651 25.504 81.7691 25.488V25.008C82.1851 25.024 82.7211 25.04 83.3771 25.056C84.0491 25.072 84.7771 25.08 85.5611 25.08C86.2331 25.08 86.8971 25.072 87.5531 25.056C88.2091 25.04 88.7531 25.024 89.1851 25.008ZM106.609 25.008V25.488C106.097 25.552 105.713 25.688 105.457 25.896C105.201 26.088 105.025 26.4 104.929 26.832C104.849 27.264 104.809 27.872 104.809 28.656V42.048C104.617 42.032 104.417 42.024 104.209 42.024C104.017 42.024 103.809 42.032 103.585 42.048L93.1686 28.848V38.064C93.1686 38.944 93.2166 39.624 93.3126 40.104C93.4086 40.568 93.6166 40.904 93.9366 41.112C94.2726 41.304 94.7926 41.44 95.4966 41.52V42C95.1926 41.968 94.7926 41.952 94.2966 41.952C93.8006 41.936 93.3366 41.928 92.9046 41.928C92.5366 41.928 92.1606 41.936 91.7766 41.952C91.3926 41.952 91.0726 41.968 90.8166 42V41.52C91.3286 41.44 91.7126 41.304 91.9686 41.112C92.2246 40.92 92.3926 40.608 92.4726 40.176C92.5686 39.728 92.6166 39.12 92.6166 38.352V27.552C92.6166 26.96 92.5686 26.528 92.4726 26.256C92.3926 25.968 92.2166 25.776 91.9446 25.68C91.6886 25.568 91.3126 25.504 90.8166 25.488V25.008C91.0726 25.024 91.3926 25.04 91.7766 25.056C92.1606 25.072 92.5366 25.08 92.9046 25.08C93.2886 25.08 93.6566 25.072 94.0086 25.056C94.3606 25.04 94.6806 25.024 94.9686 25.008L104.257 36.456V28.944C104.257 28.064 104.209 27.392 104.113 26.928C104.017 26.448 103.801 26.104 103.465 25.896C103.145 25.688 102.633 25.552 101.929 25.488V25.008C102.233 25.024 102.633 25.04 103.129 25.056C103.625 25.072 104.089 25.08 104.521 25.08C104.905 25.08 105.281 25.072 105.649 25.056C106.033 25.04 106.353 25.024 106.609 25.008ZM116.853 24.672C117.941 24.672 118.829 24.824 119.517 25.128C120.205 25.432 120.821 25.8 121.365 26.232C121.557 26.376 121.717 26.448 121.845 26.448C122.149 26.448 122.349 25.968 122.445 25.008H122.997C122.965 25.632 122.941 26.392 122.925 27.288C122.909 28.168 122.901 29.344 122.901 30.816H122.349C122.237 29.856 122.061 29.024 121.821 28.32C121.597 27.6 121.173 26.984 120.549 26.472C120.165 26.104 119.685 25.816 119.109 25.608C118.549 25.4 117.981 25.296 117.405 25.296C116.525 25.296 115.773 25.528 115.149 25.992C114.525 26.44 114.013 27.056 113.613 27.84C113.213 28.624 112.917 29.512 112.725 30.504C112.533 31.48 112.437 32.496 112.437 33.552C112.437 36.432 112.829 38.536 113.613 39.864C114.413 41.192 115.557 41.856 117.045 41.856C117.429 41.856 117.765 41.808 118.053 41.712C118.341 41.616 118.573 41.504 118.749 41.376C118.973 41.216 119.125 41.048 119.205 40.872C119.285 40.68 119.325 40.432 119.325 40.128V37.776C119.325 37.04 119.261 36.496 119.133 36.144C119.021 35.776 118.789 35.528 118.437 35.4C118.085 35.272 117.573 35.2 116.901 35.184V34.704C117.237 34.72 117.637 34.736 118.101 34.752C118.581 34.752 119.077 34.76 119.589 34.776C120.101 34.776 120.573 34.776 121.005 34.776C121.677 34.776 122.293 34.768 122.853 34.752C123.413 34.736 123.869 34.72 124.221 34.704V35.184C123.917 35.2 123.685 35.256 123.525 35.352C123.381 35.448 123.277 35.64 123.213 35.928C123.165 36.216 123.141 36.656 123.141 37.248V42H122.661C122.645 41.728 122.581 41.432 122.469 41.112C122.373 40.792 122.205 40.632 121.965 40.632C121.853 40.632 121.701 40.664 121.509 40.728C121.333 40.776 121.053 40.912 120.669 41.136C120.077 41.472 119.453 41.76 118.797 42C118.141 42.224 117.453 42.336 116.733 42.336C114.877 42.336 113.309 41.992 112.029 41.304C110.749 40.616 109.781 39.632 109.125 38.352C108.485 37.056 108.165 35.504 108.165 33.696C108.165 31.872 108.533 30.288 109.269 28.944C110.021 27.6 111.045 26.552 112.341 25.8C113.653 25.048 115.157 24.672 116.853 24.672Z" fill="white"/>
<path d="M63.4056 17.177C60.8601 18.0793 40.7413 17.9603 31 17.788C33.0364 18.3519 48.7203 19.2761 56.3077 19.6678C53.8797 20.1565 46.0932 20.6233 42.5035 20.7956C43.0093 20.9523 44.5888 21.3408 46.8601 21.6415C49.6993 22.0175 67.5175 22.3464 75.5944 21.2656C83.6713 20.1847 88.8112 14.8273 88.4685 14.8273C88.1944 14.8273 76.0513 15.7672 70.014 16.2372L80.5385 14.8273C82.0723 14.7333 85.6587 14.395 87.7343 13.7934C89.8098 13.1919 92.7762 10.3472 94 9C91.7483 9.37596 87.1566 10.1373 86.8042 10.1749C86.3636 10.2219 78.4825 11.6787 76.7203 12.3836C74.958 13.0885 66.5874 16.0492 63.4056 17.177Z" fill="#DCBB87"/>
<path d="M86.0244 3.94805C83.0195 4.36364 76.0894 9.48918 73 12C75.878 9.97403 88.122 8.20779 92.3659 7.32468C95.761 6.61818 98.2033 2.14719 99 0C94.2683 3.63636 89.7805 3.42857 86.0244 3.94805Z" fill="#C5C8C8"/>
</svg>
