<svg width="90" height="72" viewBox="0 0 90 72" fill="none" xmlns="http://www.w3.org/2000/svg">
<g filter="url(#filter0_d_509_6154)">
<rect x="22.1992" y="11.0991" width="45" height="27" rx="8" fill="#DCBB87" shape-rendering="crispEdges"/>
<rect x="23.3091" y="12.209" width="42.7802" height="24.7802" rx="6.89008" stroke="#DCBA83" stroke-opacity="0.7" stroke-width="2.21983" shape-rendering="crispEdges"/>
<path d="M30.1164 30.0991V19.8091H32.7344C33.5744 19.8091 34.2371 19.8931 34.7224 20.0611C35.2171 20.2291 35.5811 20.4438 35.8144 20.7051C36.0571 20.9665 36.2157 21.2418 36.2904 21.5311C36.3651 21.8205 36.4024 22.0911 36.4024 22.3431C36.4024 22.6138 36.3604 22.8985 36.2764 23.1971C36.2017 23.4865 36.0711 23.7571 35.8844 24.0091C35.6977 24.2518 35.4411 24.4478 35.1144 24.5971C35.8144 24.7745 36.3091 25.0825 36.5984 25.5211C36.8971 25.9505 37.0464 26.4311 37.0464 26.9631C37.0464 27.3271 37.0044 27.6958 36.9204 28.0691C36.8364 28.4425 36.6591 28.7831 36.3884 29.0911C36.1271 29.3898 35.7304 29.6325 35.1984 29.8191C34.6664 30.0058 33.9524 30.0991 33.0564 30.0991H30.1164ZM31.6564 24.1771H32.9864C33.4717 24.1771 33.8451 24.0978 34.1064 23.9391C34.3677 23.7711 34.5497 23.5565 34.6524 23.2951C34.7644 23.0338 34.8204 22.7585 34.8204 22.4691C34.8204 22.2265 34.7644 22.0071 34.6524 21.8111C34.5497 21.6058 34.3584 21.4425 34.0784 21.3211C33.8077 21.1998 33.4204 21.1391 32.9164 21.1391H31.6564V24.1771ZM31.6564 28.7831H33.2664C33.7424 28.7831 34.1204 28.7271 34.4004 28.6151C34.6897 28.5031 34.9091 28.3585 35.0584 28.1811C35.2077 28.0038 35.3057 27.8125 35.3524 27.6071C35.3991 27.3925 35.4224 27.1825 35.4224 26.9771C35.4224 26.4918 35.2591 26.1138 34.9324 25.8431C34.6057 25.5631 34.0924 25.4231 33.3924 25.4231H31.6564V28.7831ZM41.6277 30.2391C40.9557 30.2391 40.363 30.0898 39.8497 29.7911C39.3457 29.4925 38.9537 29.0865 38.6737 28.5731C38.3937 28.0598 38.2537 27.4905 38.2537 26.8651C38.2537 26.2491 38.389 25.6891 38.6597 25.1851C38.9397 24.6718 39.3317 24.2658 39.8357 23.9671C40.3397 23.6591 40.937 23.5051 41.6277 23.5051C42.3184 23.5051 42.9157 23.6591 43.4197 23.9671C43.9237 24.2658 44.311 24.6718 44.5817 25.1851C44.8524 25.6891 44.9877 26.2491 44.9877 26.8651C44.9877 27.4905 44.8477 28.0598 44.5677 28.5731C44.297 29.0865 43.9097 29.4925 43.4057 29.7911C42.9017 30.0898 42.309 30.2391 41.6277 30.2391ZM41.6697 29.0071C42.2297 29.0071 42.659 28.8018 42.9577 28.3911C43.2657 27.9805 43.4197 27.4811 43.4197 26.8931C43.4197 26.4918 43.345 26.1325 43.1957 25.8151C43.0464 25.4885 42.8317 25.2271 42.5517 25.0311C42.281 24.8351 41.959 24.7371 41.5857 24.7371C41.2217 24.7371 40.909 24.8351 40.6477 25.0311C40.3864 25.2271 40.181 25.4885 40.0317 25.8151C39.8917 26.1325 39.8217 26.4918 39.8217 26.8931C39.8217 27.2851 39.901 27.6445 40.0597 27.9711C40.2184 28.2885 40.433 28.5405 40.7037 28.7271C40.9837 28.9138 41.3057 29.0071 41.6697 29.0071ZM49.5711 30.2391C48.8991 30.2391 48.3064 30.0898 47.7931 29.7911C47.2891 29.4925 46.8971 29.0865 46.6171 28.5731C46.3371 28.0598 46.1971 27.4905 46.1971 26.8651C46.1971 26.2491 46.3324 25.6891 46.6031 25.1851C46.8831 24.6718 47.2751 24.2658 47.7791 23.9671C48.2831 23.6591 48.8804 23.5051 49.5711 23.5051C50.2617 23.5051 50.8591 23.6591 51.3631 23.9671C51.8671 24.2658 52.2544 24.6718 52.5251 25.1851C52.7957 25.6891 52.9311 26.2491 52.9311 26.8651C52.9311 27.4905 52.7911 28.0598 52.5111 28.5731C52.2404 29.0865 51.8531 29.4925 51.3491 29.7911C50.8451 30.0898 50.2524 30.2391 49.5711 30.2391ZM49.6131 29.0071C50.1731 29.0071 50.6024 28.8018 50.9011 28.3911C51.2091 27.9805 51.3631 27.4811 51.3631 26.8931C51.3631 26.4918 51.2884 26.1325 51.1391 25.8151C50.9897 25.4885 50.7751 25.2271 50.4951 25.0311C50.2244 24.8351 49.9024 24.7371 49.5291 24.7371C49.1651 24.7371 48.8524 24.8351 48.5911 25.0311C48.3297 25.2271 48.1244 25.4885 47.9751 25.8151C47.8351 26.1325 47.7651 26.4918 47.7651 26.8931C47.7651 27.2851 47.8444 27.6445 48.0031 27.9711C48.1617 28.2885 48.3764 28.5405 48.6471 28.7271C48.9271 28.9138 49.2491 29.0071 49.6131 29.0071ZM54.4244 30.0991V19.8091H55.8664V25.4511L55.8384 26.5431L58.2884 23.6731H60.1504L57.7284 26.3611L60.1644 30.0991H58.3864L57.0844 27.9991L56.7204 27.2851L55.8804 28.1951V30.0991H54.4244Z" fill="white"/>
</g>
<defs>
<filter id="filter0_d_509_6154" x="0.000890732" y="-4.29153e-05" width="89.3967" height="71.3967" filterUnits="userSpaceOnUse" color-interpolation-filters="sRGB">
<feFlood flood-opacity="0" result="BackgroundImageFix"/>
<feColorMatrix in="SourceAlpha" type="matrix" values="0 0 0 0 0 0 0 0 0 0 0 0 0 0 0 0 0 0 127 0" result="hardAlpha"/>
<feOffset dy="11.0992"/>
<feGaussianBlur stdDeviation="11.0992"/>
<feComposite in2="hardAlpha" operator="out"/>
<feColorMatrix type="matrix" values="0 0 0 0 0 0 0 0 0 0 0 0 0 0 0 0 0 0 0.25 0"/>
<feBlend mode="normal" in2="BackgroundImageFix" result="effect1_dropShadow_509_6154"/>
<feBlend mode="normal" in="SourceGraphic" in2="effect1_dropShadow_509_6154" result="shape"/>
</filter>
</defs>
</svg>
