<svg width="26" height="26" viewBox="0 0 26 26" fill="none" xmlns="http://www.w3.org/2000/svg">
<path d="M7.03733 15.1602C7.46745 15.1602 7.87995 14.9893 8.18408 14.6852C8.48822 14.381 8.65908 13.9685 8.65908 13.5384C8.65908 13.1083 8.48822 12.6958 8.18408 12.3917C7.87995 12.0875 7.46745 11.9167 7.03733 11.9167C6.60722 11.9167 6.19472 12.0875 5.89058 12.3917C5.58645 12.6958 5.41558 13.1083 5.41558 13.5384C5.41558 13.9685 5.58645 14.381 5.89058 14.6852C6.19472 14.9893 6.60722 15.1602 7.03733 15.1602ZM8.66017 18.9562C8.66017 19.3863 8.4893 19.7988 8.18517 20.1029C7.88103 20.4071 7.46853 20.5779 7.03842 20.5779C6.6083 20.5779 6.1958 20.4071 5.89167 20.1029C5.58753 19.7988 5.41667 19.3863 5.41667 18.9562C5.41667 18.5261 5.58753 18.1136 5.89167 17.8094C6.1958 17.5053 6.6083 17.3344 7.03842 17.3344C7.46853 17.3344 7.88103 17.5053 8.18517 17.8094C8.4893 18.1136 8.66017 18.5261 8.66017 18.9562ZM13 15.1602C13.4301 15.1602 13.8426 14.9893 14.1468 14.6852C14.4509 14.381 14.6217 13.9685 14.6217 13.5384C14.6217 13.1083 14.4509 12.6958 14.1468 12.3917C13.8426 12.0875 13.4301 11.9167 13 11.9167C12.5699 11.9167 12.1574 12.0875 11.8533 12.3917C11.5491 12.6958 11.3783 13.1083 11.3783 13.5384C11.3783 13.9685 11.5491 14.381 11.8533 14.6852C12.1574 14.9893 12.5699 15.1602 13 15.1602ZM14.6228 18.9562C14.6228 19.3863 14.452 19.7988 14.1478 20.1029C13.8437 20.4071 13.4312 20.5779 13.0011 20.5779C12.571 20.5779 12.1585 20.4071 11.8543 20.1029C11.5502 19.7988 11.3793 19.3863 11.3793 18.9562C11.3793 18.5261 11.5502 18.1136 11.8543 17.8094C12.1585 17.5053 12.571 17.3344 13.0011 17.3344C13.4312 17.3344 13.8437 17.5053 14.1478 17.8094C14.452 18.1136 14.6228 18.5261 14.6228 18.9562ZM18.9562 15.1602C19.3863 15.1602 19.7988 14.9893 20.1029 14.6852C20.4071 14.381 20.5779 13.9685 20.5779 13.5384C20.5779 13.1083 20.4071 12.6958 20.1029 12.3917C19.7988 12.0875 19.3863 11.9167 18.9562 11.9167C18.5261 11.9167 18.1136 12.0875 17.8094 12.3917C17.5053 12.6958 17.3344 13.1083 17.3344 13.5384C17.3344 13.9685 17.5053 14.381 17.8094 14.6852C18.1136 14.9893 18.5261 15.1602 18.9562 15.1602ZM26 5.41667C26 3.98008 25.4293 2.60233 24.4135 1.5865C23.3977 0.570683 22.0199 6.54703e-09 20.5833 6.1199e-09L5.41667 1.6105e-09C3.98008 1.18337e-09 2.60233 0.570683 1.5865 1.5865C0.570683 2.60233 -1.18337e-09 3.98008 -1.6105e-09 5.41667L-6.1199e-09 20.5833C-6.54703e-09 22.0199 0.570683 23.3977 1.5865 24.4135C2.60233 25.4293 3.98008 26 5.41667 26L20.5833 26C22.0199 26 23.3977 25.4293 24.4135 24.4135C25.4293 23.3977 26 22.0199 26 20.5833L26 5.41667ZM2.16667 8.66667L23.8333 8.66667L23.8333 20.5833C23.8333 21.4453 23.4909 22.2719 22.8814 22.8814C22.2719 23.4909 21.4453 23.8333 20.5833 23.8333L5.41667 23.8333C4.55471 23.8333 3.72806 23.4909 3.11857 22.8814C2.50908 22.2719 2.16667 21.4453 2.16667 20.5833L2.16667 8.66667ZM5.41667 2.16667L20.5833 2.16667C21.4453 2.16667 22.2719 2.50908 22.8814 3.11857C23.4909 3.72806 23.8333 4.55471 23.8333 5.41667L23.8333 6.5L2.16667 6.5L2.16667 5.41667C2.16667 4.55471 2.50908 3.72806 3.11857 3.11857C3.72806 2.50908 4.55471 2.16667 5.41667 2.16667Z" fill="black"/>
</svg>
