<svg width="46" height="45" viewBox="0 0 46 45" fill="none" xmlns="http://www.w3.org/2000/svg">
<rect width="44" height="43" rx="21.5" transform="matrix(1 -8.70493e-08 -8.77979e-08 -1 1 44)" fill="black"/>
<rect width="44" height="43" rx="21.5" transform="matrix(1 -8.70493e-08 -8.77979e-08 -1 1 44)" stroke="#DCBB87" stroke-width="2"/>
<path fill-rule="evenodd" clip-rule="evenodd" d="M16.9094 20.9087C16.4881 21.3306 16.2514 21.9024 16.2514 22.4987C16.2514 23.0949 16.4881 23.6668 16.9094 24.0887L25.3934 32.5757C25.8155 32.9976 26.3879 33.2345 26.9847 33.2344C27.5815 33.2342 28.1538 32.997 28.5757 32.5749C28.9976 32.1528 29.2345 31.5804 29.2344 30.9837C29.2342 30.3869 28.997 29.8146 28.5749 29.3927L21.6809 22.4987L28.5749 15.6047C28.985 15.1805 29.2121 14.6123 29.2072 14.0223C29.2024 13.4324 28.966 12.8679 28.549 12.4506C28.132 12.0332 27.5678 11.7963 26.9779 11.7909C26.3879 11.7855 25.8195 12.012 25.3949 12.4217L16.9079 20.9072L16.9094 20.9087Z" fill="white"/>
</svg>
