<svg width="36" height="36" viewBox="0 0 36 36" fill="none" xmlns="http://www.w3.org/2000/svg">
<path d="M27.6408 15.4568C27.5549 15.545 27.4919 15.6528 27.4571 15.7709C27.4224 15.889 27.417 16.0138 27.4415 16.1344C27.5624 16.7392 27.6229 17.3609 27.6229 17.9996C27.6228 19.9394 27.0363 21.8337 25.9404 23.4343C24.8445 25.0349 23.2904 26.2669 21.4819 26.9687C19.6734 27.6705 17.695 27.8093 15.8062 27.367C13.9174 26.9247 12.2064 25.9219 10.8977 24.4901C10.8328 24.4173 10.7539 24.3583 10.6658 24.3166C10.5777 24.2748 10.482 24.2512 10.3846 24.2471C10.2872 24.243 10.1899 24.2585 10.0986 24.2927C10.0073 24.3269 9.92375 24.379 9.85295 24.4461C9.73266 24.5626 9.66173 24.7208 9.65482 24.8881C9.64792 25.0554 9.70556 25.219 9.81584 25.345C11.4307 27.1455 13.5941 28.3634 15.9711 28.8102C18.3482 29.257 20.8062 28.9078 22.9647 27.8166C25.1232 26.7254 26.8617 24.9531 27.9111 22.7741C28.9604 20.5952 29.2621 18.131 28.7694 15.7633C28.6608 15.2369 28.0202 15.0788 27.6408 15.4582M25.9582 11.3484C26.0808 11.2297 26.1521 11.0677 26.1567 10.8971C26.1613 10.7265 26.099 10.5609 25.983 10.4357C24.3274 8.68717 22.1436 7.53034 19.7669 7.14285C17.3902 6.75535 14.952 7.15862 12.8266 8.29072C10.7013 9.42282 9.00636 11.2212 8.00206 13.4096C6.99775 15.5981 6.7396 18.0557 7.26725 20.405C7.38272 20.9246 8.01781 21.0772 8.39446 20.7005C8.57316 20.5219 8.64189 20.2607 8.58966 20.0133C8.15149 17.9684 8.39157 15.8364 9.27355 13.9402C10.1555 12.0439 11.6314 10.4866 13.4777 9.50406C15.324 8.52151 17.4402 8.1672 19.5058 8.49478C21.5715 8.82235 23.4742 9.81397 24.9259 11.3195C24.9916 11.3892 25.0705 11.4452 25.1579 11.4844C25.2453 11.5235 25.3396 11.5451 25.4354 11.5478C25.5311 11.5504 25.6265 11.5342 25.716 11.5C25.8055 11.4658 25.8887 11.4143 25.9582 11.3484Z" fill="#1F2E3C"/>
<path fill-rule="evenodd" clip-rule="evenodd" d="M27.1875 7.5C27.3864 7.5 27.5772 7.57902 27.7178 7.71967C27.8585 7.86032 27.9375 8.05109 27.9375 8.25V11.25C27.9375 11.4489 27.8585 11.6397 27.7178 11.7803C27.5772 11.921 27.3864 12 27.1875 12H24.1875C23.9886 12 23.7978 11.921 23.6572 11.7803C23.5165 11.6397 23.4375 11.4489 23.4375 11.25C23.4375 11.0511 23.5165 10.8603 23.6572 10.7197C23.7978 10.579 23.9886 10.5 24.1875 10.5H26.4375V8.25C26.4375 8.05109 26.5165 7.86032 26.6572 7.71967C26.7978 7.57902 26.9886 7.5 27.1875 7.5ZM8.2815 24.2205C8.35116 24.1506 8.43391 24.0952 8.52503 24.0573C8.61615 24.0195 8.71384 24 8.8125 24H11.8125C12.0114 24 12.2022 24.079 12.3428 24.2197C12.4835 24.3603 12.5625 24.5511 12.5625 24.75C12.5625 24.9489 12.4835 25.1397 12.3428 25.2803C12.2022 25.421 12.0114 25.5 11.8125 25.5H9.5625V27.75C9.5625 27.9489 9.48348 28.1397 9.34283 28.2803C9.20218 28.421 9.01141 28.5 8.8125 28.5C8.61359 28.5 8.42282 28.421 8.28217 28.2803C8.14152 28.1397 8.0625 27.9489 8.0625 27.75V24.75C8.06233 24.6514 8.08158 24.5538 8.11915 24.4627C8.15673 24.3716 8.2119 24.2903 8.2815 24.2205Z" fill="#1F2E3C"/>
<path d="M18.335 18.5008V21.4123C19.328 21.3013 20.042 20.7268 20.042 19.9033C20.042 19.0663 19.2545 18.7543 18.368 18.5083L18.335 18.5008ZM16.1855 15.9823C16.1855 16.8148 17.0405 17.1598 17.663 17.3353V14.6113C16.76 14.7313 16.1855 15.2713 16.1855 15.9823Z" fill="#1F2E3C"/>
<path fill-rule="evenodd" clip-rule="evenodd" d="M18 24.9995C19.8565 24.9995 21.637 24.262 22.9497 22.9493C24.2625 21.6365 25 19.856 25 17.9995C25 16.143 24.2625 14.3625 22.9497 13.0498C21.637 11.737 19.8565 10.9995 18 10.9995C16.1435 10.9995 14.363 11.737 13.0503 13.0498C11.7375 14.3625 11 16.143 11 17.9995C11 19.856 11.7375 21.6365 13.0503 22.9493C14.363 24.262 16.1435 24.9995 18 24.9995ZM18.3136 22.8995H17.6864V22.0455C16.1814 21.9475 15.263 21.1047 15.1748 19.8979H16.1548C16.2248 20.6861 16.8828 21.1005 17.6864 21.1845V18.2865L17.3798 18.1983C16.1548 17.8469 15.389 17.2183 15.389 16.1627C15.389 14.9587 16.3732 14.1257 17.685 13.9927V13.0995H18.315V13.9801C19.701 14.0725 20.681 14.9223 20.7174 16.0395H19.799C19.715 15.3423 19.1256 14.9055 18.315 14.8257V17.5473L18.6202 17.6313C19.4322 17.8469 20.8252 18.3215 20.8252 19.7915C20.8252 20.9857 19.9222 21.9349 18.3136 22.0455V22.8995Z" fill="#1F2E3C"/>
</svg>
