<svg width="92" height="91" viewBox="0 0 92 91" fill="none" xmlns="http://www.w3.org/2000/svg">
<g filter="url(#filter0_d_509_6531)">
<ellipse cx="43.8387" cy="41.5" rx="31.8387" ry="31.5" fill="white"/>
</g>
<path fill-rule="evenodd" clip-rule="evenodd" d="M43.4041 57.7319C39.4572 55.2828 35.7854 52.4004 32.4546 49.1361C30.1128 46.7854 28.3301 43.9196 27.2429 40.7582C25.2864 34.6256 27.5717 27.6048 33.9671 25.5271C37.3283 24.4361 40.9992 25.0597 43.8315 27.2027C46.6649 25.0623 50.3346 24.439 53.696 25.5271C60.0914 27.6048 62.3931 34.6256 60.4367 40.7582C59.3495 43.9196 57.5667 46.7854 55.2249 49.1361C51.8941 52.4004 48.2223 55.2828 44.2754 57.7319L43.848 58L43.4041 57.7319Z" stroke="#C49C74" stroke-width="4" stroke-linecap="round" stroke-linejoin="round"/>
<defs>
<filter id="filter0_d_509_6531" x="0" y="0" width="91.6777" height="91" filterUnits="userSpaceOnUse" color-interpolation-filters="sRGB">
<feFlood flood-opacity="0" result="BackgroundImageFix"/>
<feColorMatrix in="SourceAlpha" type="matrix" values="0 0 0 0 0 0 0 0 0 0 0 0 0 0 0 0 0 0 127 0" result="hardAlpha"/>
<feOffset dx="2" dy="4"/>
<feGaussianBlur stdDeviation="7"/>
<feColorMatrix type="matrix" values="0 0 0 0 0 0 0 0 0 0 0 0 0 0 0 0 0 0 0.15 0"/>
<feBlend mode="normal" in2="BackgroundImageFix" result="effect1_dropShadow_509_6531"/>
<feBlend mode="normal" in="SourceGraphic" in2="effect1_dropShadow_509_6531" result="shape"/>
</filter>
</defs>
</svg>
