<svg width="15" height="22" viewBox="0 0 15 22" fill="none" xmlns="http://www.w3.org/2000/svg">
<path d="M4.01786 0C3.80474 4.61094e-09 3.60035 0.0869193 3.44965 0.241637C3.29895 0.396354 3.21429 0.606196 3.21429 0.825C3.21429 1.0438 3.29895 1.25365 3.44965 1.40836C3.60035 1.56308 3.80474 1.65 4.01786 1.65H4.28571V3.3H3.48214C2.55862 3.3 1.67292 3.67665 1.0199 4.34709C0.366867 5.01754 0 5.92685 0 6.875V16.775C0 17.4808 0.203489 18.1708 0.584825 18.7581C0.96616 19.3453 1.50828 19.8035 2.14286 20.075V21.175C2.14286 21.3938 2.22752 21.6036 2.37822 21.7584C2.52892 21.9131 2.73331 22 2.94643 22C3.15955 22 3.36394 21.9131 3.51464 21.7584C3.66534 21.6036 3.75 21.3938 3.75 21.175V20.35H11.25V21.175C11.25 21.3938 11.3347 21.6036 11.4854 21.7584C11.6361 21.9131 11.8405 22 12.0536 22C12.2667 22 12.4711 21.9131 12.6218 21.7584C12.7725 21.6036 12.8571 21.3938 12.8571 21.175V20.075C13.4917 19.8035 14.0338 19.3453 14.4152 18.7581C14.7965 18.1708 15 17.4808 15 16.775V6.875C15 5.92685 14.6331 5.01754 13.9801 4.34709C13.3271 3.67665 12.4414 3.3 11.5179 3.3H10.7143V1.65H10.9821C11.1953 1.65 11.3997 1.56308 11.5504 1.40836C11.7011 1.25365 11.7857 1.0438 11.7857 0.825C11.7857 0.606196 11.7011 0.396354 11.5504 0.241637C11.3997 0.0869193 11.1953 4.61094e-09 10.9821 0H4.01786ZM9.10714 1.65V3.3H5.89286V1.65H9.10714ZM3.21429 8.525C3.21429 8.3062 3.29895 8.09636 3.44965 7.94164C3.60035 7.78692 3.80474 7.7 4.01786 7.7H10.9821C11.1953 7.7 11.3997 7.78692 11.5504 7.94164C11.7011 8.09636 11.7857 8.3062 11.7857 8.525C11.7857 8.7438 11.7011 8.95365 11.5504 9.10836C11.3997 9.26308 11.1953 9.35 10.9821 9.35H4.01786C3.80474 9.35 3.60035 9.26308 3.44965 9.10836C3.29895 8.95365 3.21429 8.7438 3.21429 8.525Z" fill="#1F2E3C"/>
</svg>
