<svg width="28" height="28" viewBox="0 0 28 28" fill="none" xmlns="http://www.w3.org/2000/svg">
<path d="M7.51008 20.5099C10.0948 20.5099 12.1901 18.4146 12.1901 15.8299C12.1901 13.2452 10.0948 11.1499 7.51008 11.1499C4.92539 11.1499 2.83008 13.2452 2.83008 15.8299C2.83008 18.4146 4.92539 20.5099 7.51008 20.5099Z" stroke="black" stroke-width="1.5" stroke-linecap="round" stroke-linejoin="round"/>
<path d="M19.9905 10.11C22.5752 10.11 24.6705 8.01469 24.6705 5.43C24.6705 2.84531 22.5752 0.75 19.9905 0.75C17.4059 0.75 15.3105 2.84531 15.3105 5.43C15.3105 8.01469 17.4059 10.11 19.9905 10.11Z" stroke="black" stroke-width="1.5" stroke-linecap="round" stroke-linejoin="round"/>
<path d="M13.23 16.3499C13.23 14.2699 14.79 10.1099 19.99 10.1099C25.19 10.1099 26.75 14.2699 26.75 16.3499M0.75 26.7499C0.75 24.6699 2.31 20.5099 7.51 20.5099C12.71 20.5099 14.27 24.6699 14.27 26.7499" stroke="black" stroke-width="1.5" stroke-linecap="round" stroke-linejoin="round"/>
</svg>
