<svg width="13" height="22" viewBox="0 0 13 22" fill="none" xmlns="http://www.w3.org/2000/svg">
<path d="M0.8125 0C0.8125 0 0 5.92308 0 6.76923C0 7.61538 1.82812 9.30769 1.82812 9.30769L1.625 20.5988C1.625 21.5329 2.353 22 3.25 22C4.147 22 4.875 21.5329 4.875 20.5988L4.67188 9.30769C4.67188 9.30769 6.5 7.57985 6.5 6.76923C6.5 5.95862 5.6875 0 5.6875 0H4.875V5.5C4.875 5.61221 4.8322 5.71982 4.75601 5.79916C4.67983 5.8785 4.57649 5.92308 4.46875 5.92308C4.36101 5.92308 4.25767 5.8785 4.18149 5.79916C4.1053 5.71982 4.0625 5.61221 4.0625 5.5C4.0625 5.42131 3.783 0 3.783 0H2.717C2.717 0 2.4375 5.42131 2.4375 5.5C2.4375 5.61221 2.3947 5.71982 2.31851 5.79916C2.24233 5.8785 2.13899 5.92308 2.03125 5.92308C1.92351 5.92308 1.82017 5.8785 1.74399 5.79916C1.6678 5.71982 1.625 5.61221 1.625 5.5V0H0.8125ZM9.52169 0.0533077C9.04313 0.172615 8.9375 0.706538 8.9375 1.29462V20.5979C8.9375 21.5321 9.6655 21.9992 10.5625 21.9992C11.4595 21.9992 12.1623 21.5312 12.1623 20.5979C12.1623 16.2935 11.3498 13.9988 11.3498 11.8453C11.3498 10.8739 13 9.62331 13 5.10231C13 2.33708 10.647 0.0524615 9.75 0.0524615C9.6655 0.0524615 9.58994 0.0363846 9.52169 0.0533077Z" fill="#1F2E3C"/>
</svg>
