<svg width="37" height="37" viewBox="0 0 37 37" fill="none" xmlns="http://www.w3.org/2000/svg">
<path d="M14.3089 24.0709C11.5839 24.0573 9.28263 23.1018 7.40507 21.2044C5.52751 19.307 4.59503 16.9963 4.60762 14.2723C4.6202 11.5484 5.57569 9.24711 7.47409 7.36855C9.37248 5.49 11.6832 4.55751 14.4061 4.5711C17.1291 4.58468 19.4309 5.54017 21.3114 7.43758C23.192 9.33498 24.124 11.6457 24.1074 14.3696C24.1019 15.4696 23.9217 16.5062 23.5669 17.4795C23.212 18.4527 22.7327 19.3128 22.129 20.0598L30.487 28.5016C30.7606 28.778 30.8963 29.1287 30.8942 29.5537C30.8921 29.9786 30.7528 30.328 30.4765 30.6016C30.2001 30.8752 29.8494 31.011 29.4244 31.0088C28.9994 31.0067 28.6501 30.8675 28.3765 30.5911L20.0185 22.1493C19.2655 22.7456 18.4007 23.2163 17.4239 23.5614C16.4472 23.9065 15.4088 24.0763 14.3089 24.0709ZM14.3238 21.0709C16.1988 21.0802 17.7961 20.4322 19.1156 19.1268C20.4351 17.8213 21.0991 16.2306 21.1074 14.3546C21.1158 12.4787 20.4677 10.8819 19.1633 9.56439C17.8588 8.24687 16.2681 7.58242 14.3912 7.57106C12.5142 7.5597 10.9174 8.20824 9.6009 9.51669C8.28436 10.8251 7.61992 12.4153 7.60758 14.2873C7.59524 16.1593 8.24378 17.7565 9.5532 19.0791C10.8626 20.4016 12.4528 21.0656 14.3238 21.0709Z" fill="black"/>
</svg>
