<svg width="109" height="78" viewBox="0 0 109 78" fill="none" xmlns="http://www.w3.org/2000/svg">
<g filter="url(#filter0_d_509_5188)">
<rect x="22.1992" y="11.0991" width="64" height="33" rx="15" fill="#0C1015" shape-rendering="crispEdges"/>
<rect x="23.3091" y="12.209" width="61.7802" height="30.7802" rx="13.8901" stroke="white" stroke-opacity="0.1" stroke-width="2.21983" shape-rendering="crispEdges"/>
<path d="M37.2576 19.1259C37.6919 18.4274 38.7085 18.4274 39.1428 19.1259L41.3086 22.6094C41.4614 22.8551 41.7042 23.0315 41.9851 23.1009L45.9674 24.0843C46.7659 24.2815 47.0801 25.2483 46.55 25.8772L43.9063 29.0135C43.7198 29.2348 43.627 29.5201 43.6479 29.8088L43.9432 33.9001C44.0024 34.7204 43.18 35.318 42.4181 35.0081L38.6183 33.463C38.3502 33.354 38.0502 33.354 37.7821 33.463L33.9823 35.0081C33.2204 35.318 32.398 34.7204 32.4572 33.9001L32.7525 29.8088C32.7733 29.5201 32.6806 29.2348 32.4941 29.0135L29.8504 25.8772C29.3203 25.2483 29.6344 24.2815 30.4329 24.0843L34.4152 23.1009C34.6962 23.0315 34.9389 22.8551 35.0917 22.6094L37.2576 19.1259Z" fill="url(#paint0_linear_509_5188)"/>
<path d="M59.4265 35.5991V32.1031H53.0425L57.0515 21.1591L59.0275 21.9001L56.0065 30.1081H59.4265L59.5405 26.9351H61.6495V30.1081H63.5875V32.1031H61.6495V35.5991H59.4265ZM65.8105 35.7891C65.4305 35.7891 65.1075 35.6625 64.8415 35.4091C64.5755 35.1431 64.4425 34.8201 64.4425 34.4401C64.4425 34.0475 64.5692 33.7245 64.8225 33.4711C65.0885 33.2051 65.4178 33.0721 65.8105 33.0721C66.2158 33.0721 66.5452 33.2051 66.7985 33.4711C67.0518 33.7245 67.1785 34.0475 67.1785 34.4401C67.1785 34.8201 67.0455 35.1431 66.7795 35.4091C66.5262 35.6625 66.2032 35.7891 65.8105 35.7891ZM73.1493 35.8841C72.2753 35.8841 71.4709 35.7068 70.7363 35.3521C70.0016 34.9975 69.4126 34.4971 68.9693 33.8511C68.5386 33.2051 68.3233 32.4451 68.3233 31.5711C68.3233 30.9251 68.4309 30.3741 68.6463 29.9181C68.8616 29.4495 69.1403 29.0631 69.4823 28.7591C69.8369 28.4551 70.2043 28.2208 70.5843 28.0561C70.1156 27.7775 69.7166 27.3975 69.3873 26.9161C69.0706 26.4221 68.9123 25.8458 68.9123 25.1871C68.9123 24.4018 69.0959 23.7305 69.4633 23.1731C69.8433 22.6031 70.3499 22.1661 70.9833 21.8621C71.6293 21.5581 72.3513 21.4061 73.1493 21.4061C73.9599 21.4061 74.6819 21.5581 75.3153 21.8621C75.9486 22.1661 76.4489 22.6031 76.8163 23.1731C77.1963 23.7305 77.3863 24.3891 77.3863 25.1491C77.3863 25.8711 77.2153 26.4728 76.8733 26.9541C76.5313 27.4355 76.1196 27.8091 75.6383 28.0751C76.0309 28.2398 76.4046 28.4741 76.7593 28.7781C77.1139 29.0821 77.4053 29.4621 77.6333 29.9181C77.8613 30.3741 77.9753 30.9251 77.9753 31.5711C77.9753 32.4451 77.7536 33.2051 77.3103 33.8511C76.8669 34.4971 76.2779 34.9975 75.5433 35.3521C74.8213 35.7068 74.0233 35.8841 73.1493 35.8841ZM73.1493 27.1821C73.5293 27.1821 73.8713 27.0871 74.1753 26.8971C74.4919 26.7071 74.7453 26.4538 74.9353 26.1371C75.1253 25.8205 75.2203 25.4721 75.2203 25.0921C75.2203 24.4968 75.0303 24.0155 74.6503 23.6481C74.2703 23.2681 73.7699 23.0781 73.1493 23.0781C72.5159 23.0781 72.0093 23.2681 71.6293 23.6481C71.2493 24.0155 71.0593 24.4968 71.0593 25.0921C71.0593 25.6748 71.2493 26.1688 71.6293 26.5741C72.0219 26.9795 72.5286 27.1821 73.1493 27.1821ZM73.1493 34.0221C73.9726 34.0221 74.6186 33.7815 75.0873 33.3001C75.5686 32.8188 75.8093 32.2235 75.8093 31.5141C75.8093 30.7795 75.5559 30.1778 75.0493 29.7091C74.5426 29.2405 73.9093 29.0061 73.1493 29.0061C72.3893 29.0061 71.7496 29.2405 71.2303 29.7091C70.7236 30.1651 70.4703 30.7668 70.4703 31.5141C70.4703 32.2235 70.7109 32.8188 71.1923 33.3001C71.6736 33.7815 72.3259 34.0221 73.1493 34.0221Z" fill="white"/>
</g>
<defs>
<filter id="filter0_d_509_5188" x="0.000890732" y="-4.29153e-05" width="108.397" height="77.3967" filterUnits="userSpaceOnUse" color-interpolation-filters="sRGB">
<feFlood flood-opacity="0" result="BackgroundImageFix"/>
<feColorMatrix in="SourceAlpha" type="matrix" values="0 0 0 0 0 0 0 0 0 0 0 0 0 0 0 0 0 0 127 0" result="hardAlpha"/>
<feOffset dy="11.0992"/>
<feGaussianBlur stdDeviation="11.0992"/>
<feComposite in2="hardAlpha" operator="out"/>
<feColorMatrix type="matrix" values="0 0 0 0 0 0 0 0 0 0 0 0 0 0 0 0 0 0 0.25 0"/>
<feBlend mode="normal" in2="BackgroundImageFix" result="effect1_dropShadow_509_5188"/>
<feBlend mode="normal" in="SourceGraphic" in2="effect1_dropShadow_509_5188" result="shape"/>
</filter>
<linearGradient id="paint0_linear_509_5188" x1="41.5299" y1="34.8136" x2="35.9804" y2="17.6099" gradientUnits="userSpaceOnUse">
<stop stop-color="#F6B663"/>
<stop offset="1" stop-color="#FFF7ED"/>
</linearGradient>
</defs>
</svg>
