<svg width="22" height="22" viewBox="0 0 22 22" fill="none" xmlns="http://www.w3.org/2000/svg">
<path fill-rule="evenodd" clip-rule="evenodd" d="M16.2488 13.6145C16.3204 13.328 16.4987 13.0796 16.7474 12.9202C16.996 12.7609 17.2961 12.7026 17.5862 12.7574C17.8764 12.8121 18.1346 12.9757 18.3082 13.2147C18.4817 13.4537 18.5574 13.75 18.5197 14.0429L18.4942 14.1761L17.6956 17.3684H18.529V16.2105C18.5296 15.9155 18.6428 15.6318 18.8454 15.4175C19.048 15.2031 19.3247 15.0742 19.6192 15.057C19.9136 15.0399 20.2034 15.1358 20.4295 15.3252C20.6556 15.5146 20.8009 15.7833 20.8357 16.0762L20.8438 16.2105V17.3684C21.1389 17.3687 21.4226 17.4818 21.6371 17.6844C21.8516 17.8869 21.9807 18.1638 21.998 18.4585C22.0153 18.7531 21.9195 19.0432 21.7301 19.2695C21.5408 19.4958 21.2722 19.6412 20.9793 19.6761L20.8438 19.6842V20.8421C20.8435 21.1372 20.7306 21.4211 20.528 21.6357C20.3255 21.8503 20.0487 21.9794 19.7542 21.9967C19.4597 22.014 19.1698 21.9182 18.9435 21.7287C18.7173 21.5393 18.5719 21.2706 18.5371 20.9776L18.529 20.8421V19.6842H16.2141C16.0511 19.6841 15.89 19.6496 15.7413 19.5829C15.5926 19.5162 15.4596 19.4188 15.3511 19.2972C15.2426 19.1755 15.161 19.0323 15.1117 18.8769C15.0623 18.7215 15.0463 18.5575 15.0648 18.3955L15.0914 18.2449L16.2488 13.6145ZM12.1631 12.7368C12.9305 12.7368 13.6665 13.0418 14.2091 13.5847C14.7518 14.1276 15.0567 14.8638 15.0567 15.6316V16.0079C15.0567 16.7895 14.7777 17.5444 14.2696 18.1373L12.9432 19.6842H13.8992C14.2062 19.6842 14.5006 19.8062 14.7177 20.0233C14.9347 20.2405 15.0567 20.535 15.0567 20.8421C15.0567 21.1492 14.9347 21.4437 14.7177 21.6609C14.5006 21.878 14.2062 22 13.8992 22H10.4269C10.2057 22 9.98903 21.9366 9.80269 21.8172C9.61636 21.6979 9.46813 21.5276 9.37556 21.3265C9.28299 21.1255 9.24997 20.9021 9.2804 20.6829C9.31083 20.4636 9.40344 20.2577 9.54726 20.0895L12.5115 16.6297C12.6595 16.4563 12.7412 16.2359 12.7418 16.0079V15.6316C12.7418 15.478 12.6808 15.3308 12.5723 15.2222C12.4638 15.1136 12.3166 15.0526 12.1631 15.0526C12.0096 15.0526 11.8624 15.1136 11.7539 15.2222C11.6453 15.3308 11.5844 15.478 11.5844 15.6316C11.5844 15.9387 11.4624 16.2332 11.2453 16.4503C11.0283 16.6675 10.7339 16.7895 10.4269 16.7895C10.1199 16.7895 9.82555 16.6675 9.60848 16.4503C9.39142 16.2332 9.26948 15.9387 9.26948 15.6316C9.26948 14.8638 9.57434 14.1276 10.117 13.5847C10.6596 13.0418 11.3956 12.7368 12.1631 12.7368ZM10.4269 4.76944e-06C11.983 -0.000282222 13.5195 0.348211 14.9233 1.01988C16.3271 1.69155 17.5627 2.66933 18.5393 3.88138C19.5158 5.09343 20.2085 6.50896 20.5664 8.02396C20.9244 9.53896 20.9385 11.1149 20.6077 12.6361C20.4065 12.1185 20.0841 11.6566 19.6677 11.2893C19.2512 10.9221 18.7527 10.66 18.2142 10.5253C17.6652 10.3878 17.091 10.3866 16.5415 10.5218C15.992 10.657 15.4839 10.9245 15.0613 11.3011C14.2771 10.7757 13.365 10.4734 12.4224 10.4263C11.4799 10.3793 10.5422 10.5894 9.70971 11.0341C8.87721 11.4788 8.18113 12.1415 7.69587 12.9512C7.21061 13.761 6.95439 14.6874 6.95461 15.6316C6.95461 16.6575 7.39906 17.5792 8.1051 18.2137L7.79027 18.5819C7.37974 19.0615 7.10764 19.6439 7.00322 20.2666C4.67576 19.459 2.70973 17.8523 1.45427 15.7319C0.198802 13.6115 -0.264842 11.1145 0.145668 8.68452C0.556177 6.2545 1.81427 4.04867 3.69654 2.45873C5.5788 0.868789 7.96342 -0.002352 10.4269 4.76944e-06ZM9.26948 3.47369C8.96251 3.47369 8.66811 3.59568 8.45105 3.81283C8.23399 4.02998 8.11204 4.32449 8.11204 4.63158V8.10527H6.95461C6.64763 8.10527 6.35324 8.22726 6.13617 8.44441C5.91911 8.66155 5.79717 8.95607 5.79717 9.26316C5.79717 9.57025 5.91911 9.86477 6.13617 10.0819C6.35324 10.2991 6.64763 10.4211 6.95461 10.4211H9.26948C9.57645 10.4211 9.87085 10.2991 10.0879 10.0819C10.305 9.86477 10.4269 9.57025 10.4269 9.26316V4.63158C10.4269 4.32449 10.305 4.02998 10.0879 3.81283C9.87085 3.59568 9.57645 3.47369 9.26948 3.47369Z" fill="#1F2E3C"/>
</svg>
