<svg width="22" height="17" viewBox="0 0 22 17" fill="none" xmlns="http://www.w3.org/2000/svg">
<path d="M11 17C10.3232 17 9.75106 16.7583 9.28372 16.275C8.81637 15.7917 8.5827 15.2 8.5827 14.5C8.5827 13.8 8.81637 13.2083 9.28372 12.725C9.75106 12.2417 10.3232 12 11 12C11.6768 12 12.2489 12.2417 12.7163 12.725C13.1836 13.2083 13.4173 13.8 13.4173 14.5C13.4173 15.2 13.1836 15.7917 12.7163 16.275C12.2489 16.7583 11.6768 17 11 17ZM11 6C12.2087 6 13.357 6.2 14.4451 6.6C15.5332 7 16.5202 7.55 17.4059 8.25C17.7282 8.5 17.8935 8.82933 17.9019 9.238C17.9103 9.64667 17.7691 10.0007 17.4784 10.3C17.2044 10.5833 16.866 10.7293 16.4631 10.738C16.0602 10.7467 15.6976 10.634 15.3753 10.4C14.7629 9.96667 14.0861 9.625 13.3448 9.375C12.6035 9.125 11.8219 9 11 9C10.1781 9 9.39652 9.125 8.65522 9.375C7.91391 9.625 7.23706 9.96667 6.62468 10.4C6.30237 10.6333 5.93978 10.7417 5.5369 10.725C5.13401 10.7083 4.79559 10.5583 4.52163 10.275C4.24767 9.975 4.11069 9.621 4.11069 9.213C4.11069 8.805 4.27184 8.47567 4.59415 8.225C5.48049 7.525 6.46772 6.979 7.55583 6.587C8.64393 6.195 9.79199 5.99933 11 6ZM11 0C13.0144 0 14.9122 0.341667 16.6932 1.025C18.4743 1.70833 20.0736 2.675 21.4911 3.925C21.8134 4.20833 21.9826 4.55833 21.9987 4.975C22.0148 5.39167 21.8779 5.75 21.5878 6.05C21.3138 6.33333 20.9754 6.47933 20.5725 6.488C20.1696 6.49667 19.807 6.36733 19.4847 6.1C18.3244 5.11667 17.0233 4.35433 15.5813 3.813C14.1393 3.27167 12.6122 3.00067 11 3C9.38782 2.99933 7.86105 3.27033 6.41969 3.813C4.97834 4.35567 3.67686 5.118 2.51527 6.1C2.19296 6.36667 1.83036 6.496 1.42748 6.488C1.0246 6.48 0.686175 6.334 0.412214 6.05C0.122137 5.75 -0.0148431 5.39167 0.00127227 4.975C0.0173876 4.55833 0.186599 4.20833 0.508906 3.925C1.92706 2.675 3.52667 1.70833 5.30773 1.025C7.0888 0.341667 8.98623 0 11 0Z" fill="#1F2E3C"/>
</svg>
